<?xml version="1.0" encoding="utf-8"?>
<!-- Generator: Adobe Illustrator 16.0.0, SVG Export Plug-In . SVG Version: 6.00 Build 0)  -->
<!DOCTYPE svg PUBLIC "-//W3C//DTD SVG 1.1//EN" "http://www.w3.org/Graphics/SVG/1.1/DTD/svg11.dtd">
<svg version="1.1" id="Layer_1" xmlns="http://www.w3.org/2000/svg" xmlns:xlink="http://www.w3.org/1999/xlink" x="0px" y="0px"
	 width="115px" height="150px" viewBox="0 0 115 150" enable-background="new 0 0 115 150" xml:space="preserve">
<g>
	<path fill-rule="evenodd" clip-rule="evenodd" fill="#DC6E2D" d="M58.613,148.752c-0.667,0-1.334,0-2.002,0
		c-1.088-0.884-2.416-1.589-3.229-2.679c-13.425-17.976-26.789-35.995-40.157-54.012C4.035,79.674,0.233,65.854,2.279,50.51
		c1.408-10.56,5.579-19.952,12.406-28.086c8.025-9.562,18.159-15.842,30.36-18.637c2.864-0.656,5.803-0.987,8.707-1.468
		c2.479,0,4.958,0,7.436,0c0.369,0.081,0.732,0.203,1.105,0.236c7.684,0.688,15.004,2.73,21.698,6.537
		c16.762,9.532,26.614,23.915,28.871,43.088c1.676,14.242-1.965,27.33-10.476,38.9c-13.43,18.256-26.982,36.422-40.53,54.59
		C60.978,146.85,59.704,147.732,58.613,148.752z M87.525,58.173c0.066-16.514-13.327-30.015-29.9-30.138
		c-16.552-0.123-30.144,13.36-30.21,29.971c-0.067,16.516,13.327,30.016,29.9,30.14C73.866,88.268,87.459,74.784,87.525,58.173z"/>
</g>
<g id="wpone-logo">
	<g>
		<path fill="#FFFFFF" d="M102.784,57.524c0,25.01-20.273,45.286-45.284,45.286c-25.01,0-45.285-20.276-45.285-45.286
			c0-25.01,20.274-45.285,45.285-45.285C82.511,12.239,102.784,32.515,102.784,57.524"/>
		<polygon fill="#DC6E2D" points="38.02,58.533 32.22,35.989 38.505,35.989 41.204,50.77 41.471,50.77 45.058,35.989 49.867,35.989 
			53.454,50.77 53.755,50.77 56.387,35.989 62.687,35.989 56.889,58.533 51.275,58.533 47.571,44.758 47.353,44.758 43.633,58.533 
					"/>
		<path fill="#DC6E2D" d="M71.134,47.45h2.029c2.432,0,3.972-1.04,3.972-3.483c0-2.279-1.375-3.5-3.536-3.5h-2.465V47.45z
			 M75.073,35.99c5.428,0,8.144,3.699,8.144,7.976c0,4.343-2.782,7.861-8.212,7.861h-3.854v6.706h-5.982V35.99H75.073z"/>
		<path d="M34.218,71.243c-0.112,0.656-0.193,1.271-0.193,2.063c0,3.321,2.106,5.494,5.491,5.494c3.175,0,5.271-2.091,5.937-5.782
			l0.554-3.157c0.11-0.601,0.125-1.461,0.125-1.818c0-3.238-2.15-5.426-5.451-5.426c-2.968,0-5.2,1.832-5.895,5.604L34.218,71.243z
			 M32.984,67.962c0.791-4.387,3.773-6.97,7.739-6.97c4.188,0,7.253,2.583,7.253,7.107c0,0.56-0.054,1.421-0.221,2.241L47.2,73.417
			c-0.818,4.414-3.481,7.025-7.92,7.025c-3.925,0-7.059-2.488-7.059-6.862c0-0.807,0.055-1.709,0.208-2.542L32.984,67.962z"/>
		<polygon points="62.285,80.03 54.729,64.341 54.602,64.341 51.801,80.03 50.025,80.03 53.354,61.388 55.131,61.388 62.633,77.106 
			62.741,77.106 65.573,61.388 67.348,61.388 64.019,80.03 		"/>
		<polygon points="79.944,80.03 68.961,80.03 72.289,61.388 83.217,61.388 82.954,62.974 73.8,62.974 72.607,69.658 81.304,69.658 
			81.014,71.216 72.315,71.216 71.026,78.459 80.207,78.459 		"/>
	</g>
</g>
</svg>
