<?xml version="1.0" encoding="utf-8"?>
<!-- Generator: Adobe Illustrator 16.0.0, SVG Export Plug-In . SVG Version: 6.00 Build 0)  -->
<!DOCTYPE svg PUBLIC "-//W3C//DTD SVG 1.1//EN" "http://www.w3.org/Graphics/SVG/1.1/DTD/svg11.dtd">
<svg version="1.1" xmlns="http://www.w3.org/2000/svg" xmlns:xlink="http://www.w3.org/1999/xlink" x="0px" y="0px" width="250px"
	 height="250px" viewBox="0 0 250 250" enable-background="new 0 0 250 250" xml:space="preserve">
<g id="bg" display="none">
	<rect x="-6" y="-7" display="inline" opacity="0.5" width="266" height="266"/>
</g>
<g id="wpone-logo">
	<g>
		<path fill="#FFFFFF" d="M246.5,125.191c0,67.103-54.397,121.5-121.5,121.5c-67.103,0-121.5-54.397-121.5-121.5
			c0-67.104,54.397-121.5,121.5-121.5C192.103,3.691,246.5,58.088,246.5,125.191"/>
		<polygon fill="#DC6E2D" points="72.733,127.894 57.175,67.412 74.036,67.412 81.276,107.068 81.995,107.068 91.617,67.412 
			104.521,67.412 114.144,107.068 114.952,107.068 122.012,67.412 138.915,67.412 123.361,127.894 108.299,127.894 98.36,90.939 
			97.777,90.939 87.794,127.894 		"/>
		<path fill="#DC6E2D" d="M161.582,98.162h5.441c6.521,0,10.656-2.792,10.656-9.349c0-6.115-3.688-9.393-9.488-9.393h-6.609V98.162z
			 M172.148,67.413c14.566,0,21.853,9.925,21.853,21.401c0,11.652-7.465,21.09-22.032,21.09h-10.343v17.99h-16.05V67.413H172.148z"
			/>
		<path d="M62.533,161.999c-0.298,1.76-0.518,3.41-0.518,5.536c0,8.912,5.654,14.74,14.735,14.74c8.521,0,14.14-5.609,15.927-15.512
			l1.488-8.47c0.296-1.614,0.336-3.921,0.336-4.877c0-8.69-5.77-14.558-14.627-14.558c-7.963,0-13.953,4.913-15.814,15.035
			L62.533,161.999z M59.222,153.197c2.121-11.771,10.123-18.702,20.764-18.702c11.239,0,19.462,6.932,19.462,19.069
			c0,1.502-0.146,3.813-0.595,6.013l-1.489,8.253c-2.195,11.844-9.339,18.849-21.247,18.849c-10.532,0-18.94-6.675-18.94-18.41
			c0-2.163,0.146-4.584,0.557-6.818L59.222,153.197z"/>
		<polygon points="137.841,185.576 117.562,143.481 117.225,143.481 109.708,185.576 104.945,185.576 113.876,135.559 
			118.64,135.559 138.769,177.729 139.067,177.729 146.659,135.559 151.422,135.559 142.491,185.576 		"/>
		<polygon points="185.218,185.576 155.747,185.576 164.679,135.559 194.001,135.559 193.294,139.812 168.733,139.812 
			165.535,157.744 188.865,157.744 188.085,161.925 164.751,161.925 161.292,181.359 185.924,181.359 		"/>
	</g>
</g>
</svg>
