<?xml version="1.0" encoding="utf-8"?>
<!-- Generator: Adobe Illustrator 16.0.0, SVG Export Plug-In . SVG Version: 6.00 Build 0)  -->
<!DOCTYPE svg PUBLIC "-//W3C//DTD SVG 1.1//EN" "http://www.w3.org/Graphics/SVG/1.1/DTD/svg11.dtd">
<svg version="1.1" id="Layer_1" xmlns="http://www.w3.org/2000/svg" xmlns:xlink="http://www.w3.org/1999/xlink" x="0px" y="0px"
	 width="95px" height="55px" viewBox="0 0 95 55" enable-background="new 0 0 95 55" xml:space="preserve">
<g>
	<path fill-rule="evenodd" clip-rule="evenodd" fill="#FFFFFF" d="M2.574,23.542c0.172-0.683,0.302-1.381,0.525-2.048
		c1.066-3.186,3.157-5.271,6.58-5.626c1.063-0.11,2.265,0.131,3.258,0.553c1.668,0.71,3.175,0.758,4.83-0.02
		c2.17-1.019,4.411-0.987,6.593,0.068c1.049,0.506,1.928,1.223,2.548,2.233c-4.787,3.327-4.136,9.893,0.856,12.33
		c-0.927,2.685-2.313,5.092-4.379,7.063c-1.12,1.069-2.489,1.29-3.958,0.822c-0.364-0.116-0.718-0.27-1.068-0.426
		c-1.717-0.766-3.424-0.728-5.156-0.022c-2.934,1.197-4.242,0.843-6.227-1.637c-2.262-2.827-3.71-6.014-4.233-9.608
		c-0.033-0.226-0.111-0.445-0.168-0.667C2.574,25.552,2.574,24.547,2.574,23.542z"/>
	<path fill-rule="evenodd" clip-rule="evenodd" fill="#FFFFFF" d="M93.378,18.399c-0.123,0.257-0.273,0.505-0.369,0.772
		c-2.479,6.943-4.951,13.89-7.434,20.833c-0.256,0.721-0.566,1.424-0.867,2.128c-1.383,3.248-3.899,4.68-7.363,4.578
		c-0.527-0.018-1.053-0.075-1.63-0.119c0-1.122,0-2.201,0-3.314c0.802-0.06,1.589-0.082,2.366-0.181
		c0.979-0.124,1.686-0.692,2.134-1.553c0.692-1.334,0.995-2.611,0.397-4.186c-2.302-6.065-4.447-12.189-6.649-18.292
		c-0.099-0.271-0.18-0.548-0.317-0.97c1.491,0,2.892-0.031,4.288,0.035c0.197,0.01,0.45,0.468,0.543,0.761
		c1.604,5.091,3.185,10.189,4.772,15.287c0.079,0.251,0.164,0.5,0.297,0.903c0.171-0.488,0.304-0.834,0.415-1.189
		c1.549-4.985,3.104-9.967,4.627-14.961c0.194-0.642,0.471-0.891,1.162-0.861c1.206,0.051,2.419-0.011,3.628-0.026
		C93.378,18.163,93.378,18.281,93.378,18.399z"/>
	<path fill-rule="evenodd" clip-rule="evenodd" fill="#FFFFFF" d="M37.248,29.195c0,3.295,0,6.474,0,9.703c-1.492,0-2.892,0-4.358,0
		c0-9.498,0-18.96,0-28.471c0.206-0.02,0.376-0.051,0.546-0.05c3.545,0.004,7.092-0.049,10.635,0.036
		c5.035,0.12,8.66,3.762,8.855,8.774c0.208,5.331-3.026,9.345-8.096,9.85c-2.137,0.213-4.306,0.115-6.46,0.157
		C38.049,29.201,37.728,29.195,37.248,29.195z M37.31,25.466c1.768,0,3.416,0.011,5.064-0.007c0.499-0.005,1-0.068,1.495-0.141
		c2.361-0.35,3.961-1.812,4.386-4.109c0.138-0.743,0.127-1.529,0.078-2.289c-0.15-2.265-1.499-4.122-3.724-4.472
		c-2.386-0.376-4.842-0.314-7.3-0.446C37.31,17.948,37.31,21.654,37.31,25.466z"/>
	<path fill-rule="evenodd" clip-rule="evenodd" fill="#FFFFFF" d="M67.68,38.901c0-1.104,0-2.123,0-3.408
		c-1.216,1.882-2.698,3.005-4.624,3.523c-1.747,0.472-3.459,0.356-5.126-0.298c-2.429-0.952-3.834-3.097-3.817-5.734
		c0.018-2.532,1.316-4.54,3.897-5.309c1.869-0.555,3.874-0.68,5.826-0.923c1.192-0.147,2.401-0.157,3.582-0.227
		c0.48-2.72-0.375-4.494-2.402-5.092c-2.744-0.81-5.012,0.213-6.099,2.776c-1.303,0-2.618,0-3.936,0
		c0.186-2.922,2.067-5.111,5.217-6.013c2.574-0.737,5.151-0.698,7.632,0.365c2.478,1.062,3.894,2.97,3.928,5.697
		c0.06,4.728,0.024,9.454,0.027,14.183c0,0.139-0.041,0.278-0.068,0.459C70.394,38.901,69.105,38.901,67.68,38.901z M67.437,29.598
		c-0.617,0-1.18-0.043-1.734,0.008c-1.673,0.154-3.37,0.213-5.005,0.557c-1.583,0.333-2.343,1.513-2.264,2.954
		c0.073,1.328,1.051,2.347,2.556,2.661C65.036,36.625,68.071,33.733,67.437,29.598z"/>
	<path fill-rule="evenodd" clip-rule="evenodd" fill="#FFFFFF" d="M15.199,15.284c-0.527-3.265,2.768-7.042,6.042-6.998
		C22.007,11.521,18.563,15.545,15.199,15.284z"/>
</g>
</svg>
