<?xml version="1.0" encoding="utf-8"?>
<!-- Generator: Adobe Illustrator 16.0.0, SVG Export Plug-In . SVG Version: 6.00 Build 0)  -->
<!DOCTYPE svg PUBLIC "-//W3C//DTD SVG 1.1//EN" "http://www.w3.org/Graphics/SVG/1.1/DTD/svg11.dtd">
<svg version="1.1" id="Layer_1" xmlns="http://www.w3.org/2000/svg" xmlns:xlink="http://www.w3.org/1999/xlink" x="0px" y="0px"
	 width="95px" height="55px" viewBox="0 0 95 55" enable-background="new 0 0 95 55" xml:space="preserve">
<g>
	<path fill-rule="evenodd" clip-rule="evenodd" fill="#FFFFFF" d="M93.84,20.964c-0.361,0.187-0.379,0.587-0.513,0.896
		c-3.504,8.024-7.002,16.05-10.466,24.09c-0.273,0.636-0.588,0.867-1.261,0.819c-0.81-0.06-1.626-0.014-2.445-0.014
		c-0.129-0.399,0.138-0.658,0.265-0.937c1.149-2.519,2.305-5.033,3.492-7.534c0.229-0.482,0.217-0.873,0.003-1.352
		c-2.248-5.059-4.478-10.125-6.71-15.191c-0.145-0.325-0.272-0.656-0.453-1.096c1.165,0,2.235,0.009,3.307-0.004
		c0.517-0.008,0.532,0.416,0.661,0.725c1.573,3.777,3.136,7.559,4.706,11.336c0.126,0.302,0.188,0.64,0.484,0.898
		c1.642-4.057,3.292-8.088,4.888-12.142c0.255-0.65,0.567-0.868,1.243-0.831c0.93,0.049,1.865-0.013,2.799-0.027
		C93.84,20.723,93.84,20.843,93.84,20.964z"/>
	<path fill-rule="evenodd" clip-rule="evenodd" fill="#FDBA02" d="M7.808,22.606c-0.609,1.971-0.606,3.942,0,5.913
		c-1.663,1.272-3.325,2.547-4.988,3.821c-0.787-1.272-1.121-2.702-1.447-4.135c-0.043-0.19,0.044-0.438-0.214-0.545
		c0-1.389,0-2.776,0-4.164c0.306-1.053,0.586-2.116,0.931-3.158c0.178-0.536,0.473-1.033,0.715-1.548
		C4.474,20.063,6.141,21.335,7.808,22.606z"/>
	<path fill-rule="evenodd" clip-rule="evenodd" fill="#FFFFFF" d="M44.42,33.453c0,1.539-0.021,3.077,0.011,4.616
		c0.011,0.524-0.082,0.777-0.68,0.732c-0.691-0.053-1.39-0.051-2.08-0.001c-0.598,0.044-0.683-0.216-0.682-0.738
		C41.004,29.705,41,21.35,41,12.993c0-0.365-0.068-0.721,0.519-0.705c3.314,0.092,6.642-0.217,9.945,0.165
		c3.955,0.459,7.045,4.148,6.848,8.034c-0.204,4.053-3.551,7.39-7.607,7.529c-1.809,0.06-3.621,0.06-5.429,0.002
		c-0.751-0.024-0.888,0.238-0.869,0.912C44.451,30.436,44.42,31.945,44.42,33.453z M44.419,20.16c0,1.294,0.025,2.589-0.01,3.882
		c-0.016,0.556,0.094,0.789,0.723,0.771c1.624-0.047,3.251,0,4.876-0.021c2.77-0.037,4.795-1.962,4.814-4.55
		c0.021-2.55-2.025-4.581-4.746-4.653c-1.685-0.044-3.372,0.007-5.058-0.02c-0.48-0.007-0.617,0.154-0.607,0.619
		C44.437,17.51,44.42,18.835,44.419,20.16z"/>
	<path fill-rule="evenodd" clip-rule="evenodd" fill="#FFFFFF" d="M72.052,27.98c0.115-2.084-0.798-3.606-2.635-4.436
		c-1.853-0.836-4.317-0.492-5.675,1.05c-0.769,0.875-1.303,0.884-2.067,0.186c-0.131-0.12-0.305-0.19-0.459-0.287
		c-1.479-0.928-1.479-0.928-0.229-2.136c2.879-2.786,8.542-3.101,11.713-0.644c1.8,1.393,2.589,3.31,2.625,5.514
		c0.06,3.646,0.017,7.294,0.038,10.94c0.002,0.463-0.123,0.65-0.605,0.63c-0.692-0.034-1.389-0.042-2.078,0.001
		c-0.523,0.032-0.604-0.209-0.582-0.645c0.026-0.568,0.007-1.14,0.007-1.708c-0.373-0.115-0.422,0.209-0.545,0.37
		c-2.843,3.747-8.422,3.027-10.878,0.147c-2.349-2.754-1.679-6.986,1.544-8.761c2.896-1.595,5.951-1.46,9.014-0.451
		c0.226,0.074,0.443,0.18,0.666,0.266C71.928,28.028,71.963,28.005,72.052,27.98z M66.615,36.333c2.51-0.013,4.848-1.949,5.39-4.395
		c0.156-0.701,0.034-1.116-0.649-1.424c-1.951-0.882-3.948-1.063-5.969-0.381c-1.274,0.43-2.314,1.217-2.519,2.677
		C62.596,34.765,64.302,36.345,66.615,36.333z"/>
	<path fill-rule="evenodd" clip-rule="evenodd" fill="#FE4132" d="M7.808,22.606c-1.667-1.271-3.334-2.543-5.002-3.815
		c2.511-4.913,6.551-7.68,11.99-8.303c4.099-0.469,7.808,0.631,11.042,3.252c0.521,0.423,0.651,0.688,0.083,1.21
		c-1.153,1.06-2.235,2.195-3.334,3.313c-0.262,0.266-0.438,0.403-0.803,0.087c-4.184-3.62-11.385-2.168-13.784,3.847
		C7.943,22.337,7.872,22.47,7.808,22.606z"/>
	<path fill-rule="evenodd" clip-rule="evenodd" fill="#02A94C" d="M2.821,32.341c1.663-1.274,3.325-2.549,4.988-3.821
		c1.338,3.342,3.673,5.52,7.296,6.104c2.312,0.375,4.468-0.172,6.478-1.344c1.585,1.258,3.17,2.516,4.755,3.773
		c-2.226,2.183-4.986,3.168-8.003,3.583c-6.098,0.838-12.413-2.377-15.313-7.804C2.938,32.678,2.887,32.505,2.821,32.341z"/>
	<path fill-rule="evenodd" clip-rule="evenodd" fill="#0185F6" d="M26.338,37.054c-1.585-1.258-3.17-2.516-4.755-3.773
		c1.314-1.061,2.328-2.317,2.805-3.984c0.187-0.649,0.012-0.749-0.589-0.741c-2.198,0.028-4.397-0.024-6.595,0.031
		c-0.743,0.019-0.894-0.229-0.871-0.909c0.049-1.444,0.032-2.892,0.006-4.336c-0.008-0.469,0.135-0.621,0.611-0.618
		c4.367,0.015,8.734,0.009,13.101,0.008c0.321-0.001,0.57,0.011,0.624,0.444c0.653,5.221-0.316,9.945-4.184,13.794
		C26.452,37.008,26.39,37.026,26.338,37.054z"/>
</g>
</svg>
