<?xml version="1.0" encoding="utf-8"?>
<!-- Generator: Adobe Illustrator 16.0.0, SVG Export Plug-In . SVG Version: 6.00 Build 0)  -->
<!DOCTYPE svg PUBLIC "-//W3C//DTD SVG 1.1//EN" "http://www.w3.org/Graphics/SVG/1.1/DTD/svg11.dtd">
<svg version="1.1" id="Layer_1" xmlns="http://www.w3.org/2000/svg" xmlns:xlink="http://www.w3.org/1999/xlink" x="0px" y="0px"
	 width="95px" height="55px" viewBox="0 0 95 55" enable-background="new 0 0 95 55" xml:space="preserve">
<path id="XMLID_1775_" fill="#FFFFFF" d="M26.042,54.296v-3.593c0-1.376-0.837-2.275-2.276-2.275
	c-0.718,0-1.5,0.237-2.037,1.018c-0.419-0.654-1.02-1.018-1.919-1.018c-0.6,0-1.2,0.181-1.675,0.837v-0.718h-1.257v5.749h1.257
	v-3.174c0-1.02,0.537-1.501,1.375-1.501c0.837,0,1.255,0.538,1.255,1.501v3.174h1.256v-3.174c0-1.02,0.6-1.501,1.375-1.501
	c0.837,0,1.255,0.538,1.255,1.501v3.174H26.042L26.042,54.296z M44.673,48.547h-2.037v-1.739h-1.257v1.739h-1.138v1.136h1.138v2.638
	c0,1.32,0.538,2.096,1.975,2.096c0.538,0,1.137-0.183,1.556-0.419l-0.363-1.082c-0.364,0.236-0.782,0.302-1.082,0.302
	c-0.601,0-0.837-0.363-0.837-0.958v-2.576h2.037v-1.136H44.673z M55.336,48.421c-0.719,0-1.201,0.362-1.5,0.837v-0.719h-1.257v5.751
	h1.257v-3.236c0-0.959,0.419-1.503,1.199-1.503c0.238,0,0.538,0.064,0.782,0.118l0.362-1.2
	C55.929,48.421,55.573,48.421,55.336,48.421L55.336,48.421z M39.223,49.021c-0.6-0.42-1.438-0.6-2.337-0.6
	c-1.437,0-2.394,0.718-2.394,1.857c0,0.954,0.719,1.498,1.975,1.674l0.601,0.064c0.656,0.118,1.018,0.297,1.018,0.6
	c0,0.418-0.48,0.718-1.318,0.718s-1.5-0.3-1.919-0.6l-0.6,0.955c0.656,0.481,1.556,0.72,2.456,0.72c1.674,0,2.638-0.782,2.638-1.857
	c0-1.018-0.782-1.556-1.975-1.736l-0.6-0.064c-0.537-0.062-0.957-0.18-0.957-0.535c0-0.42,0.419-0.657,1.082-0.657
	c0.719,0,1.438,0.299,1.801,0.481L39.223,49.021L39.223,49.021z M72.642,48.421c-0.718,0-1.2,0.362-1.499,0.837v-0.719h-1.258v5.751
	h1.258v-3.236c0-0.959,0.418-1.503,1.199-1.503c0.238,0,0.538,0.064,0.782,0.118l0.361-1.187
	C73.243,48.421,72.886,48.421,72.642,48.421L72.642,48.421z M56.593,51.421c0,1.738,1.199,2.995,3.056,2.995
	c0.839,0,1.438-0.183,2.038-0.657l-0.601-1.02c-0.481,0.364-0.955,0.539-1.501,0.539c-1.018,0-1.736-0.72-1.736-1.857
	c0-1.082,0.719-1.8,1.736-1.857c0.537,0,1.02,0.184,1.501,0.539l0.601-1.021c-0.601-0.481-1.199-0.654-2.038-0.654
	C57.792,48.421,56.593,49.683,56.593,51.421L56.593,51.421L56.593,51.421z M68.21,51.421v-2.874h-1.256v0.718
	c-0.419-0.537-1.019-0.837-1.8-0.837c-1.62,0-2.875,1.255-2.875,2.993s1.255,2.995,2.875,2.995c0.837,0,1.437-0.301,1.8-0.84v0.72
	h1.256V51.421L68.21,51.421z M63.598,51.421c0-1.02,0.656-1.857,1.737-1.857c1.019,0,1.736,0.784,1.736,1.857
	c0,1.021-0.718,1.857-1.736,1.857C64.261,53.217,63.598,52.434,63.598,51.421L63.598,51.421z M48.567,48.421
	c-1.675,0-2.875,1.2-2.875,2.994c0,1.802,1.2,2.994,2.938,2.994c0.837,0,1.675-0.238,2.337-0.782l-0.6-0.899
	c-0.482,0.361-1.082,0.6-1.675,0.6c-0.781,0-1.556-0.363-1.736-1.375h4.248c0-0.181,0-0.299,0-0.482
	C51.261,49.621,50.179,48.421,48.567,48.421L48.567,48.421L48.567,48.421z M48.567,49.503c0.781,0,1.317,0.48,1.437,1.375h-2.993
	C47.13,50.103,47.667,49.503,48.567,49.503L48.567,49.503z M79.773,51.421v-5.15h-1.256v2.994c-0.419-0.537-1.019-0.837-1.8-0.837
	c-1.62,0-2.875,1.255-2.875,2.993s1.255,2.995,2.875,2.995c0.837,0,1.437-0.301,1.8-0.84v0.72h1.256V51.421L79.773,51.421z
	 M75.161,51.421c0-1.02,0.656-1.857,1.737-1.857c1.019,0,1.736,0.784,1.736,1.857c0,1.021-0.718,1.857-1.736,1.857
	C75.817,53.217,75.161,52.434,75.161,51.421L75.161,51.421z M33.11,51.421v-2.874h-1.256v0.718c-0.418-0.537-1.018-0.837-1.8-0.837
	c-1.619,0-2.874,1.255-2.874,2.993s1.255,2.995,2.874,2.995c0.838,0,1.438-0.301,1.8-0.84v0.72h1.256V51.421L33.11,51.421z
	 M28.441,51.421c0-1.02,0.656-1.857,1.738-1.857c1.019,0,1.737,0.784,1.737,1.857c0,1.021-0.718,1.857-1.737,1.857
	C29.098,53.217,28.441,52.434,28.441,51.421z"/>
<g>
	<rect id="rect19" x="38.805" y="4.876" fill="#FF5A00" width="18.869" height="33.9"/>
	<path id="XMLID_330_" fill="#EB001B" d="M40.061,21.826c0-6.887,3.238-13,8.206-16.95
		c-3.656-2.875-8.27-4.613-13.3-4.613c-11.919,0-21.563,9.644-21.563,21.563c0,11.918,9.644,21.564,21.563,21.564
		c5.03,0,9.644-1.738,13.3-4.614C43.292,34.883,40.061,28.714,40.061,21.826z"/>
	<path id="path22" fill="#F79E1B" d="M83.13,21.826c0,11.918-9.645,21.564-21.562,21.564
		c-5.032,0-9.645-1.738-13.302-4.614c5.031-3.956,8.208-10.063,8.208-16.95c0-6.887-3.24-13-8.208-16.95
		c3.65-2.875,8.262-4.613,13.294-4.613C73.485,0.264,83.13,9.971,83.13,21.826z"/>
</g>
</svg>
