<?xml version="1.0" encoding="utf-8"?>
<!-- Generator: Adobe Illustrator 16.0.0, SVG Export Plug-In . SVG Version: 6.00 Build 0)  -->
<!DOCTYPE svg PUBLIC "-//W3C//DTD SVG 1.1//EN" "http://www.w3.org/Graphics/SVG/1.1/DTD/svg11.dtd">
<svg version="1.1" id="Layer_1" xmlns="http://www.w3.org/2000/svg" xmlns:xlink="http://www.w3.org/1999/xlink" x="0px" y="0px"
	 width="95px" height="55px" viewBox="0 0 95 55" enable-background="new 0 0 95 55" xml:space="preserve">
<g>
	<path fill-rule="evenodd" clip-rule="evenodd" fill="#FFFFFF" d="M94.047,41.332c-2.041-0.016-4.082-0.059-6.123-0.03
		c-0.659,0.009-0.906-0.208-0.997-0.848c-0.139-0.962-0.391-1.906-0.576-2.861c-0.095-0.487-0.313-0.707-0.859-0.702
		c-2.803,0.028-5.61,0.029-8.413-0.001c-0.572-0.006-0.812,0.236-0.976,0.728c-0.351,1.038-0.707,2.076-1.133,3.082
		c-0.106,0.255-0.484,0.556-0.744,0.561c-2.344,0.043-4.689,0.024-7.134,0.024c0.114-0.346,0.184-0.631,0.297-0.898
		c3.583-8.561,7.189-17.112,10.743-25.686c0.71-1.711,1.899-2.539,3.707-2.548c1.77-0.009,3.538,0.012,5.306-0.013
		c0.569-0.008,0.768,0.208,0.885,0.767c1.671,8.098,3.365,16.191,5.071,24.283c0.279,1.328,0.628,2.641,0.946,3.961
		C94.047,41.21,94.047,41.271,94.047,41.332z M84.957,31.01c-0.767-3.67-1.513-7.235-2.257-10.8
		c-0.087-0.006-0.172-0.013-0.26-0.019c-1.292,3.569-2.587,7.14-3.919,10.819C80.754,31.01,82.797,31.01,84.957,31.01z"/>
	<path fill-rule="evenodd" clip-rule="evenodd" fill="#FFFFFF" d="M0.375,12.792c0.202-0.517,0.563-0.663,1.125-0.658
		c3.749,0.029,7.498,0.005,11.247,0.019c2.598,0.009,3.769,1.045,4.235,3.58c0.961,5.231,1.956,10.457,2.94,15.684
		c0.021,0.111,0.075,0.218,0.206,0.582c0.239-0.515,0.409-0.835,0.542-1.169c2.339-5.911,4.686-11.819,6.992-17.742
		c0.275-0.709,0.62-0.976,1.39-0.958c2.189,0.054,4.38,0.019,6.726,0.019c-0.133,0.38-0.213,0.653-0.322,0.914
		c-3.821,9.117-7.652,18.23-11.448,27.358c-0.282,0.679-0.612,0.902-1.334,0.884c-2.01-0.052-4.024-0.054-6.034,0.001
		c-0.727,0.019-0.979-0.233-1.153-0.914c-1.892-7.421-3.843-14.828-5.713-22.254c-0.385-1.529-1.151-2.632-2.627-3.115
		c-2.24-0.734-4.513-1.37-6.772-2.047C0.375,12.914,0.375,12.853,0.375,12.792z"/>
	<path fill-rule="evenodd" clip-rule="evenodd" fill="#FFFFFF" d="M45.781,40.213c0.454-2.109,0.887-4.118,1.343-6.23
		c0.477,0.207,0.859,0.378,1.243,0.54c2.67,1.13,5.43,1.541,8.3,0.996c0.354-0.067,0.703-0.2,1.031-0.353
		c2.093-0.97,2.362-3.003,0.529-4.393c-0.842-0.638-1.823-1.091-2.738-1.634c-1.099-0.651-2.247-1.235-3.28-1.977
		c-5.165-3.71-3.559-9.516-0.421-12.265c2.066-1.811,4.519-2.733,7.199-3.061c3.244-0.397,6.434-0.134,9.599,1.109
		c-0.42,1.958-0.835,3.904-1.251,5.86c-1.382-0.353-2.675-0.838-4.005-0.98c-1.433-0.151-2.907-0.061-4.347,0.091
		c-0.582,0.061-1.191,0.473-1.661,0.876c-0.918,0.791-0.956,1.974-0.069,2.807c0.614,0.576,1.354,1.03,2.083,1.463
		c1.229,0.73,2.506,1.381,3.741,2.101c6.542,3.816,4.509,11.78-0.4,14.516c-2.486,1.384-5.141,1.977-7.955,2.024
		c-2.732,0.047-5.404-0.274-8.003-1.129C46.433,40.479,46.157,40.358,45.781,40.213z"/>
	<path fill-rule="evenodd" clip-rule="evenodd" fill="#FFFFFF" d="M33.028,41.285c0.581-2.736,1.125-5.317,1.677-7.898
		c1.436-6.711,2.889-13.419,4.299-20.136c0.17-0.814,0.437-1.173,1.35-1.128c1.731,0.086,3.47,0.023,5.206,0.027
		c0.325,0.001,0.649,0.029,1.083,0.05c-0.397,1.907-0.765,3.71-1.151,5.511c-1.625,7.571-3.268,15.137-4.866,22.714
		c-0.144,0.683-0.389,0.888-1.067,0.875C37.433,41.26,35.305,41.285,33.028,41.285z"/>
</g>
</svg>
