<?xml version="1.0" standalone="no"?>
<!DOCTYPE svg PUBLIC "-//W3C//DTD SVG 20010904//EN"
 "http://www.w3.org/TR/2001/REC-SVG-20010904/DTD/svg10.dtd">
<svg version="1.0" xmlns="http://www.w3.org/2000/svg"
 width="600.000000pt" height="600.000000pt" viewBox="0 0 600.000000 600.000000"
 preserveAspectRatio="xMidYMid meet">
<metadata>
Created by potrace 1.14, written by Peter Selinger 2001-2017
</metadata>
<g transform="translate(0.000000,600.000000) scale(0.100000,-0.100000)"
fill="#000000" stroke="none">
<path d="M2829 5936 c-2 -2 -40 -6 -84 -10 -343 -26 -776 -149 -1065 -304 -36
-19 -90 -48 -120 -65 -88 -47 -340 -215 -370 -247 -3 -3 -25 -21 -50 -41 -392
-317 -717 -777 -896 -1268 -76 -208 -129 -439 -158 -686 -13 -103 -14 -528 -3
-630 15 -132 45 -289 78 -415 17 -63 32 -122 34 -130 8 -33 75 -219 102 -280
234 -545 604 -990 1088 -1312 286 -190 662 -351 985 -421 114 -25 133 -29 240
-42 30 -4 63 -9 72 -11 110 -20 537 -20 643 0 11 2 51 7 90 11 38 4 72 8 75
10 3 2 22 6 42 9 21 3 57 10 80 15 24 6 54 12 68 15 98 19 362 103 420 133 14
7 30 13 37 13 32 0 365 180 498 268 244 162 501 394 650 586 17 21 37 46 45
56 8 10 22 27 32 38 9 11 54 78 101 149 221 333 379 729 442 1103 9 52 18 106
21 120 13 75 19 208 19 400 0 186 -10 383 -20 400 -2 3 -7 33 -10 65 -4 33 -9
63 -11 66 -2 3 -6 21 -9 40 -34 202 -129 484 -243 719 -66 137 -235 416 -272
450 -3 3 -25 32 -50 65 -54 74 -100 126 -200 230 -295 307 -653 547 -1044 700
-109 43 -280 99 -330 109 -12 3 -59 14 -106 25 -47 11 -103 23 -125 26 -22 4
-51 8 -65 10 -14 3 -50 7 -80 11 -30 3 -64 8 -75 11 -24 5 -471 14 -476 9z"/>
</g>
</svg>
